<?xml version="1.0"?>
<svg xmlns="http://www.w3.org/2000/svg" xmlns:xlink="http://www.w3.org/1999/xlink" version="1.1" viewBox="0 0 224 224" width="16px" height="16px"><g transform="translate(5.04,5.04) scale(0.955,0.955)"><g fill="none" fill-rule="nonzero" stroke="none" stroke-width="none" stroke-linecap="butt" stroke-linejoin="none" stroke-miterlimit="10" stroke-dasharray="" stroke-dashoffset="0" font-family="none" font-weight="none" font-size="none" text-anchor="none" style="mix-blend-mode: normal"><g id="original-icon 1" fill="#ffffff" stroke="#000000" stroke-width="10" stroke-linejoin="round"><g id="surface1 1"><path d="M196.90866,53.71154l-91.13462,134.44712c-2.75962,4.00481 -7.03365,6.66346 -11.27404,6.66346c-4.24038,0 -8.95192,-2.28846 -11.94712,-5.28365l-53.50961,-53.50961c-3.63462,-3.66828 -3.63462,-9.59135 0,-13.22597l13.22596,-13.22596c3.63462,-3.63462 9.55769,-3.63462 13.19231,0l34.79808,34.79808l75.72115,-111.66347c2.86057,-4.24038 8.71635,-5.35096 12.99039,-2.45673l15.44711,10.5c4.27404,2.89423 5.38462,8.71635 2.49039,12.95673z"/></g></g><path d="M0,224v-224h224v224z" fill="none" stroke="none" stroke-width="1" stroke-linejoin="miter"/><g id="original-icon" fill="#ffffff" stroke="none" stroke-width="1" stroke-linejoin="miter"><g id="surface1"><path d="M194.41827,40.75481l-15.44711,-10.5c-4.27404,-2.89424 -10.12981,-1.78365 -12.99039,2.45673l-75.72115,111.66347l-34.79808,-34.79808c-3.63462,-3.63462 -9.55769,-3.63462 -13.19231,0l-13.22596,13.22596c-3.63462,3.63462 -3.63462,9.55769 0,13.22597l53.50961,53.50961c2.9952,2.99519 7.70674,5.28365 11.94712,5.28365c4.24039,0 8.51442,-2.65865 11.27404,-6.66346l91.13462,-134.44712c2.89423,-4.24038 1.78365,-10.0625 -2.49039,-12.95673z"/></g></g><path d="M0,224v-224h224v224z" fill="none" stroke="none" stroke-width="1" stroke-linejoin="miter"/><path d="M4.48,219.52v-215.04h215.04v215.04z" fill="none" stroke="none" stroke-width="1" stroke-linejoin="miter"/><path d="" fill="none" stroke="none" stroke-width="1" stroke-linejoin="miter"/><path d="" fill="none" stroke="none" stroke-width="1" stroke-linejoin="miter"/><path d="" fill="none" stroke="none" stroke-width="1" stroke-linejoin="miter"/><path d="" fill="none" stroke="none" stroke-width="1" stroke-linejoin="miter"/><path d="" fill="none" stroke="none" stroke-width="1" stroke-linejoin="miter"/><path d="" fill="none" stroke="none" stroke-width="1" stroke-linejoin="miter"/><path d="" fill="none" stroke="none" stroke-width="1" stroke-linejoin="miter"/><path d="" fill="none" stroke="none" stroke-width="1" stroke-linejoin="miter"/><path d="" fill="none" stroke="none" stroke-width="1" stroke-linejoin="miter"/><path d="" fill="none" stroke="none" stroke-width="1" stroke-linejoin="miter"/><path d="" fill="none" stroke="none" stroke-width="1" stroke-linejoin="miter"/><path d="" fill="none" stroke="none" stroke-width="1" stroke-linejoin="miter"/><path d="" fill="none" stroke="none" stroke-width="1" stroke-linejoin="miter"/><path d="M112,224c-61.85589,0 -112,-50.14411 -112,-112v0c0,-61.85589 50.14411,-112 112,-112v0c61.85589,0 112,50.14411 112,112v0c0,61.85589 -50.14411,112 -112,112z" fill="none" stroke="none" stroke-width="1" stroke-linejoin="miter"/><path d="M112,219.52c-59.38166,0 -107.52,-48.13834 -107.52,-107.52v0c0,-59.38166 48.13834,-107.52 107.52,-107.52h0c59.38166,0 107.52,48.13834 107.52,107.52v0c0,59.38166 -48.13834,107.52 -107.52,107.52z" fill="none" stroke="none" stroke-width="1" stroke-linejoin="miter"/><path d="M0,224v-224h224v224z" fill="none" stroke="none" stroke-width="1" stroke-linejoin="miter"/><path d="M4.48,219.52v-215.04h215.04v215.04z" fill="none" stroke="none" stroke-width="1" stroke-linejoin="miter"/><path d="" fill="none" stroke="none" stroke-width="1" stroke-linejoin="miter"/><path d="" fill="none" stroke="none" stroke-width="1" stroke-linejoin="miter"/><path d="" fill="none" stroke="none" stroke-width="1" stroke-linejoin="miter"/><path d="" fill="none" stroke="none" stroke-width="1" stroke-linejoin="miter"/><path d="" fill="none" stroke="none" stroke-width="1" stroke-linejoin="miter"/><path d="" fill="none" stroke="none" stroke-width="1" stroke-linejoin="miter"/><path d="" fill="none" stroke="none" stroke-width="1" stroke-linejoin="miter"/><path d="" fill="none" stroke="none" stroke-width="1" stroke-linejoin="miter"/></g></g></svg>
