<?xml version="1.0" encoding="utf-8"?>
<!-- Generator: Adobe Illustrator 24.0.2, SVG Export Plug-In . SVG Version: 6.00 Build 0)  -->
<svg version="1.1" id="Слой_1" xmlns="http://www.w3.org/2000/svg" xmlns:xlink="http://www.w3.org/1999/xlink" x="0px" y="0px"
	 viewBox="0 0 319.6 450.6" style="enable-background:new 0 0 319.6 450.6;" xml:space="preserve">
<style type="text/css">
	.st0{fill:#FFFFFF;}
	.st1{fill:#ED1C24;}
	.st2{fill:none;stroke:#FFFFFF;stroke-width:2;stroke-linecap:round;stroke-linejoin:round;stroke-miterlimit:10;}
	.st3{fill:none;stroke:#FFFFFF;stroke-width:2;stroke-miterlimit:10;}
</style>
<g>
	<g>
		<path d="M11.5,373.5l-2,27.3c0,0,23.1,4,36.9-9.4l-4.5-23.6"/>
		<path class="st0" d="M11.6,373.5c0.1,2.3,0.1,4.6,0,6.9c0,2.3,0,4.6-0.1,6.9l-0.2,6.9c-0.1,2.3-0.1,4.6-0.2,6.9l-1.3-1.7
			c3.1,0.4,6.3,0.4,9.5,0.3c3.2-0.1,6.3-0.5,9.4-1.2c3.1-0.6,6.1-1.7,8.9-3c2.9-1.3,5.4-3.1,7.8-5.1l-0.4,1.3l-1.8-11.9l-0.7-6
			l-0.4-3l-0.3-3l0,0c0-0.1,0-0.1,0.1-0.1c0.1,0,0.1,0,0.1,0.1l4.6,23.6c0,0.1,0,0.1,0,0.1c-2.4,2.2-5.1,4.2-8.1,5.6
			c-3,1.4-6.1,2.5-9.3,3.2c-3.2,0.7-6.5,1-9.8,1.1c-3.3,0.1-6.6-0.1-9.8-0.6c-0.1,0-0.1-0.1-0.1-0.2l2-27.3c0-0.1,0.1-0.1,0.1-0.1
			C11.5,373.4,11.6,373.4,11.6,373.5L11.6,373.5z"/>
	</g>
	<g>
		<path d="M308.7,373.5l2,27.3c0,0-23.1,4-36.9-9.4l4.5-23.6"/>
		<path class="st0" d="M308.8,373.5c0.4,2.3,0.7,4.5,1,6.8c0.3,2.3,0.7,4.5,0.9,6.8l0.8,6.8c0.2,2.3,0.5,4.5,0.7,6.8
			c0.1,0.8-0.5,1.5-1.3,1.7l0,0c-1.7,0.3-3.4,0.5-5.1,0.6c-1.7,0.1-3.4,0.2-5,0.1c-3.4-0.1-6.7-0.4-10.1-1.1
			c-3.3-0.7-6.6-1.9-9.6-3.4l-2.2-1.3c-0.7-0.4-1.4-1-2.1-1.5l-1.1-0.7c-0.3-0.3-0.6-0.6-1-0.8c-0.6-0.6-1.3-1.2-1.9-1.8l0,0
			c-0.4-0.3-0.5-0.8-0.4-1.3l2.8-11.7l1.5-5.8l0.8-2.9l0.8-2.9l0,0c0-0.1,0.1-0.1,0.1-0.1c0,0,0.1,0.1,0.1,0.1l-4.5,23.6l0-0.1
			c2.4,2.2,5.1,4.1,8,5.5c2.9,1.4,6,2.5,9.2,3.1c3.2,0.7,6.4,1.1,9.7,1.2c3.3,0.1,6.5,0,9.8-0.5l-0.1,0.2l-1.9-27.3
			c0-0.1,0-0.1,0.1-0.1C308.7,373.4,308.8,373.4,308.8,373.5L308.8,373.5z"/>
	</g>
	<g id="XMLID_1_">
		<g>
			<path class="st1" d="M5.1,316.2c-1.1-1.3-1.7-2.2-1.7-2.6c-0.1-3.4,0.4-28.5,2-34.6c1.7-6.1,6.1-18.4,6.1-18.4l0.3-0.1
				c-1.4-7.4-2.7-16-2.7-19.2c0-5.1,1.8-11.4,1.8-11.4l4.6-9c-2.6-3.5-4-6.5-4-6.5s6.1-67.4,9.2-80.4s14.5-42.9,14.5-42.9
				s19.2,32.7,21.6,39.8c1.6,4.6,4.3,24,6.1,40c1,9,1.8,16.9,1.9,20.4c0.4,9.9-1.5,42.3-2.8,51.7c-1.3,9.3-5.9,17.2-6.1,17.5
				c0.8,6.9,1.2,13,1.3,14.9c0.1,3.8-1.9,9.4-5,15.1c-3.1,5.6-3.5,27.4-3.5,27.4s6.7,31.9-0.6,42.8c-7.3,10.9-23.2,11.9-23.2,11.9
				H6.2v-22l0.7-5.4c-0.1-0.2-0.2-0.3-0.3-0.5c-1.9-3.1-3.3-17.6-3.1-20.2S5.1,316.2,5.1,316.2z"/>
			<path class="st1" d="M313.4,344.4l0.8,6.3v22h-19c0,0-15.9-1-23.2-11.9c-0.8-1.2-1.4-2.6-1.9-4.3l2.7-0.5
				c0,0,33.7-30.4,41.7-39.9c0,0,1.5,5.7,1.7,8.3C316.4,327,315.1,340.5,313.4,344.4L313.4,344.4z"/>
			<path d="M63.2,171l-0.2,0c-1.9-16-4.6-35.4-6.1-40c-2.4-7.2-21.6-39.8-21.6-39.8s1.5-8.4,7.7-13c6.1-4.6,16.9-10,16.9-10l60.4-19
				c20.6,17.1,40,19.4,40,19.4V381c0,0-11.3,0.3-30.5,0.8c-19.2,0.5-64.3-3.7-64.3-3.7s-3.3-13,0-27.1c3.3-14.1,4.8-43.8,4.8-43.8
				v-75.1L63.2,171z"/>
			<path class="st1" d="M264.1,261.3l-0.2,0c0,0-5.2-8.7-6.4-18.1c-1.2-9-3-38.7-2.9-50.1c0-0.6,0-1.1,0-1.6c0.4-10,5.6-53.2,8-60.4
				c2.4-7.2,23.8-42.2,23.8-42.2c1.1,2.6,1.5,4.7,1.5,4.7s11.5,29.9,14.5,42.9c3.1,13,9.2,80.4,9.2,80.4s-2,4.2-5.5,8.4l2.5,4.8
				c0,0,1.8,6.3,1.8,11.4c0,3.2-1.3,11.9-2.7,19.2l0.3,0.1c0,0,4.5,12.3,6.1,18.4c1.7,6.1,2.2,31.1,2,34.6c0,0.4-0.6,1.3-1.7,2.6
				c-8,9.5-41.7,39.9-41.7,39.9l-2.7,0.5c-4-13.3,1.3-38.5,1.3-38.5s-0.4-21.8-3.5-27.4c-3.1-5.6-5.1-11.2-5-15.1
				C263.1,273.7,263.4,267.9,264.1,261.3z"/>
			<path d="M254.6,191.4c0,0.5,0,1,0,1.6l-4.4,39.2v75.1c0,0,1.5,29.7,4.8,43.8c3.3,14,0,27.1,0,27.1s-45.2,4.1-64.3,3.7
				c-19.2-0.5-30.5-0.8-30.5-0.8V68.6c0,0,18.1-1.3,38.7-18.3l64.5,20.3c0,0,10.7,5.4,16.9,10c3.1,2.3,5.1,5.7,6.2,8.4
				c0,0-21.3,35-23.8,42.2C260.3,138.2,255,181.5,254.6,191.4z"/>
		</g>
		<g>
			<path class="st2" d="M15.6,221l-4.6,9c0,0-1.8,6.3-1.8,11.4c0,3.2,1.3,11.9,2.7,19.2c0.9,4.3,1.8,8.2,2.5,10.3
				c2,5.6,14.2,26.3,14.2,26.3"/>
			<path class="st2" d="M11.6,260.6c0,0-4.5,12.3-6.1,18.4c-1.7,6.1-2.2,31.1-2,34.6c0,0.4,0.6,1.3,1.7,2.6
				c8,9.5,41.7,39.9,41.7,39.9"/>
			<path class="st2" d="M5.1,316.2c0,0-1.5,5.7-1.7,8.3s1.2,17.2,3.1,20.2c0.1,0.1,0.2,0.3,0.3,0.5c2,3.2,6.2,8.7,6.2,8.7"/>
			<path class="st2" d="M6.8,345.2l-0.7,5.4v22h18.9c0,0,15.9-1,23.2-11.9c7.3-10.9,0.6-42.8,0.6-42.8s0.4-21.8,3.5-27.4
				c3.1-5.6,5.1-11.2,5-15.1c-0.1-1.9-0.4-8-1.3-14.9c-0.9-7.1-2.2-14.9-4.4-19.8"/>
			<path class="st2" d="M28.3,231.3c-5.3-1.5-9.8-6.2-12.7-10.3c-2.6-3.5-4-6.5-4-6.5s6.1-67.4,9.2-80.4s14.5-42.9,14.5-42.9
				s1.5-8.4,7.7-13c6.1-4.6,16.9-10,16.9-10l60.4-19"/>
			<path class="st2" d="M56.1,260.6C56.1,260.6,56.1,260.6,56.1,260.6c0.1-0.3,4.8-8.2,6.1-17.5c1.3-9.4,3.2-41.8,2.8-51.7
				C64.8,187.9,64,180,63,171c-1.9-16-4.6-35.4-6.1-40c-2.4-7.2-21.6-39.8-21.6-39.8"/>
			<path class="st2" d="M160.2,68.6c0,0-19.3-2.3-40-19.4"/>
			<path class="st2" d="M61.5,156.1l1.7,14.9l6.9,61.2v75.1c0,0-1.5,29.7-4.8,43.8c-3.3,14,0,27.1,0,27.1s45.2,4.1,64.3,3.7
				c19.2-0.5,30.5-0.8,30.5-0.8"/>
			<line class="st2" x1="307.7" y1="260.6" x2="308" y2="260.6"/>
			<path class="st2" d="M306.2,225.2l2.5,4.8c0,0,1.8,6.3,1.8,11.4c0,3.2-1.3,11.9-2.7,19.2c-0.8,4.3-1.8,8.2-2.5,10.3
				c-2,5.6-14.2,26.3-14.2,26.3"/>
			<path class="st2" d="M308,260.6c0,0,4.5,12.3,6.1,18.4c1.7,6.1,2.2,31.1,2,34.6c0,0.4-0.6,1.3-1.7,2.6
				c-8,9.5-41.7,39.9-41.7,39.9"/>
			<path class="st2" d="M314.5,316.2c0,0,1.5,5.7,1.7,8.3c0.2,2.5-1.1,16-2.9,19.8c-0.1,0.2-0.1,0.3-0.2,0.4
				c-1.9,3.1-6.5,9.2-6.5,9.2"/>
			<path class="st2" d="M313.4,344.4l0.8,6.3v22h-19c0,0-15.9-1-23.2-11.9c-0.8-1.2-1.4-2.6-1.9-4.3c-4-13.3,1.3-38.5,1.3-38.5
				s-0.4-21.8-3.5-27.4c-3.1-5.6-5.1-11.2-5-15.1c0.1-1.8,0.4-7.6,1.2-14.2c0.9-7.2,2.3-15.5,4.5-20.5"/>
			<path class="st2" d="M294.9,233.6c4.5-1.3,8.4-4.8,11.2-8.3c3.5-4.2,5.5-8.4,5.5-8.4s-6.1-67.4-9.2-80.4
				c-3.1-13-14.5-42.9-14.5-42.9s-0.4-2-1.5-4.7c-1.1-2.7-3.1-6-6.2-8.4c-6.1-4.6-16.9-10-16.9-10l-64.5-20.3"/>
			<path class="st2" d="M263.9,261.3c0,0-5.2-8.7-6.4-18.1c-1.2-9-3-38.7-2.9-50.1c0-0.6,0-1.1,0-1.6c0.4-10,5.6-53.2,8-60.4
				c2.4-7.2,23.8-42.2,23.8-42.2"/>
			<path class="st2" d="M258.8,156.1l-4.2,36.9l-4.4,39.2v75.1c0,0,1.5,29.7,4.8,43.8c3.3,14,0,27.1,0,27.1s-45.2,4.1-64.3,3.7
				c-19.2-0.5-30.5-0.8-30.5-0.8V68.6c0,0,18.1-1.3,38.7-18.3"/>
		</g>
	</g>
	<g>
		<path d="M64.7,354.3c0,0,61.9,8,95.5,3.1"/>
		<path class="st0" d="M64.7,354.2c2,0.1,4,0.1,6,0.3l6,0.3c4,0.2,8,0.5,11.9,0.7c8,0.4,15.9,0.9,23.9,1.3
			c7.9,0.4,15.9,0.7,23.8,0.9c2,0.1,4,0.1,6,0.1c2,0,4,0,6,0c2,0,4,0,6-0.1c2-0.1,4-0.2,6-0.3l0,0c0.1,0,0.1,0,0.1,0.1
			c0,0.1,0,0.1-0.1,0.1c-7.9,1.1-15.9,1.5-23.9,1.6c-8,0.1-16-0.1-23.9-0.5c-8-0.4-15.9-1-23.9-1.7c-8-0.7-15.9-1.5-23.8-2.5
			c-0.1,0-0.1-0.1-0.1-0.1C64.6,354.3,64.6,354.2,64.7,354.2L64.7,354.2z"/>
	</g>
	<g>
		<path d="M255.5,354.3c0,0-61.7,8-95.3,3.1"/>
		<path class="st0" d="M255.5,354.4c-3.9,0.9-7.9,1.5-11.8,2.2c-3.9,0.6-7.9,1.1-11.9,1.6c-4,0.6-7.9,0.9-11.9,1.2
			c-4,0.3-8,0.6-12,0.8c-8,0.3-16,0.6-24,0.1c-2-0.1-4-0.2-6-0.4c-2-0.2-4-0.2-6-0.5c-2-0.3-4-0.5-6-0.8c-2-0.3-3.9-0.7-5.9-1.1l0,0
			c-0.1,0-0.1-0.1-0.1-0.1c0-0.1,0.1-0.1,0.1-0.1c7.9,1.1,15.9,1.4,23.8,1.5c8,0.1,15.9-0.2,23.9-0.6c8-0.4,15.9-0.9,23.8-1.6
			c7.9-0.7,15.9-1.5,23.8-2.4c0.1,0,0.1,0,0.1,0.1C255.6,354.4,255.6,354.4,255.5,354.4L255.5,354.4z"/>
	</g>
	<g id="XMLID_2_">
		<g>
		</g>
		<g>
			<polygon class="st3" points="239.9,328.7 233,256.7 220.1,256.7 228.3,328.7 			"/>
			<polygon class="st3" points="80.2,328.7 87.2,256.7 100,256.7 91.9,328.7 			"/>
		</g>
	</g>
</g>
</svg>
