<?xml version="1.0" encoding="utf-8"?>
<!-- Generator: Adobe Illustrator 24.0.2, SVG Export Plug-In . SVG Version: 6.00 Build 0)  -->
<svg version="1.1" id="Слой_1" xmlns="http://www.w3.org/2000/svg" xmlns:xlink="http://www.w3.org/1999/xlink" x="0px" y="0px"
	 viewBox="0 0 319.6 450.6" style="enable-background:new 0 0 319.6 450.6;" xml:space="preserve">
<style type="text/css">
	.st0{fill:#FFFFFF;}
	.st1{fill:#ED1C24;}
	.st2{fill:none;stroke:#FFFFFF;stroke-width:2;stroke-linecap:round;stroke-linejoin:round;stroke-miterlimit:10;}
	.st3{fill:none;stroke:#FFFFFF;stroke-width:2;stroke-miterlimit:10;}
</style>
<g>
	<g>
		<path d="M11.5,419l-2,27.3c0,0,23.1,4,36.9-9.4l-4.5-23.6"/>
		<path class="st0" d="M11.6,419c0.1,2.3,0.1,4.6,0,6.9c0,2.3,0,4.6-0.1,6.9l-0.2,6.9c-0.1,2.3-0.1,4.6-0.2,6.9l-1.3-1.7
			c3.1,0.4,6.3,0.4,9.5,0.3c3.2-0.1,6.3-0.5,9.4-1.2c3.1-0.6,6.1-1.7,8.9-3c2.9-1.3,5.4-3.1,7.8-5.1l-0.4,1.3l-1.8-11.9l-0.7-6
			l-0.4-3l-0.3-3l0,0c0-0.1,0-0.1,0.1-0.1c0.1,0,0.1,0,0.1,0.1l4.6,23.6c0,0.1,0,0.1,0,0.1c-2.4,2.2-5.1,4.2-8.1,5.6
			c-3,1.4-6.1,2.5-9.3,3.2c-3.2,0.7-6.5,1-9.8,1.1c-3.3,0.1-6.6-0.1-9.8-0.6c-0.1,0-0.1-0.1-0.1-0.2l2-27.3c0-0.1,0.1-0.1,0.1-0.1
			C11.5,418.9,11.6,419,11.6,419L11.6,419z"/>
	</g>
	<g>
		<path d="M308.7,419l2,27.3c0,0-23.1,4-36.9-9.4l4.5-23.6"/>
		<path class="st0" d="M308.8,419c0.4,2.3,0.7,4.5,1,6.8c0.3,2.3,0.7,4.5,0.9,6.8l0.8,6.8c0.2,2.3,0.5,4.5,0.7,6.8
			c0.1,0.8-0.5,1.5-1.3,1.7l0,0c-1.7,0.3-3.4,0.5-5.1,0.6c-1.7,0.1-3.4,0.2-5,0.1c-3.4-0.1-6.7-0.4-10.1-1.1
			c-3.3-0.7-6.6-1.9-9.6-3.4l-2.2-1.3c-0.7-0.4-1.4-1-2.1-1.5l-1.1-0.7c-0.3-0.3-0.6-0.6-1-0.8c-0.6-0.6-1.3-1.2-1.9-1.8l0,0
			c-0.4-0.3-0.5-0.8-0.4-1.3l2.8-11.7l1.5-5.8l0.8-2.9l0.8-2.9l0,0c0-0.1,0.1-0.1,0.1-0.1c0,0,0.1,0.1,0.1,0.1l-4.5,23.6l0-0.1
			c2.4,2.2,5.1,4.1,8,5.5c2.9,1.4,6,2.5,9.2,3.1c3.2,0.7,6.4,1.1,9.7,1.2c3.3,0.1,6.5,0,9.8-0.5l-0.1,0.2l-1.9-27.3
			c0-0.1,0-0.1,0.1-0.1C308.7,418.9,308.8,418.9,308.8,419L308.8,419z"/>
	</g>
	<g id="XMLID_1_">
		<g>
			<path class="st1" d="M254.6,237c0.4-10,5.6-53.2,8-60.4c2.4-7.1,21.6-39.8,21.6-39.8s11.5,29.9,14.5,42.9
				c3.1,13,9.2,80.4,9.2,80.4s-1.4,3-4,6.5l4.6,9c0,0,1.8,6.3,1.8,11.4c0,3.2-1.3,11.9-2.7,19.2l0.3,0.1c0,0,4.5,12.3,6.1,18.4
				s2.2,31.1,2,34.6c0,0.4-0.6,1.3-1.7,2.6c-8,9.5-41.7,39.9-41.7,39.9l-2.7,0.5c-4-13.3,1.3-38.5,1.3-38.5s-0.4-21.8-3.5-27.4
				c-3.1-5.6-5.1-11.2-5-15.1c0.1-1.8,0.4-7.6,1.2-14.2l-0.2,0c0,0-5.2-8.7-6.4-18.1c-1.2-9-3-38.7-2.9-50.1
				C254.6,238,254.6,237.4,254.6,237z"/>
			<path d="M116.3,96.1l3.9-1.2c20.6,17,39.9,19.3,39.9,19.3v312.4c0,0-11.3,0.3-30.5,0.8c-19.2,0.5-64.3-3.7-64.3-3.7
				s-3.3-13,0-27.1c3.3-14.1,4.8-43.8,4.8-43.8v-75.1l-6.9-61.2l-0.2,0c-1.9-16-4.6-35.4-6.1-40c-2.4-7.1-21.6-39.8-21.6-39.8
				s1.5-8.4,7.7-13c6.1-4.6,16.9-10,16.9-10l20.3-6.4L116.3,96.1z"/>
			<path d="M160.2,426.6V114.1c0,0,19.2-2.3,39.7-19.2l39.6,12.4l20.3,6.4c0,0,10.7,5.4,16.9,10c6.1,4.6,7.7,13,7.7,13
				s-19.1,32.7-21.6,39.8c-2.4,7.1-7.7,50.4-8,60.4c0,0.5,0,1,0,1.6l-4.4,39.2v75.1c0,0,1.5,29.7,4.8,43.8c3.3,14,0,27.1,0,27.1
				s-45.2,4.1-64.3,3.7C171.5,426.9,160.2,426.6,160.2,426.6z"/>
			<path class="st1" d="M314.2,418.2h-19c0,0-15.9-1-23.2-11.9c-0.8-1.2-1.4-2.6-1.9-4.3l2.7-0.5c0,0,33.7-30.4,41.7-39.9
				c0,0,1.5,5.7,1.7,8.3c0.2,2.5-1.1,16-2.9,19.8l0.1,0l0.8,6.3V418.2z"/>
			<path d="M199.9,95L199.9,95c2.4-2.6,9.4-11.4,11.1-18.2c2.1-8.4,3.4-23-11.2-37c-17.7-17-41.9-20.9-41.9-20.9
				s-24.3,3.9-41.9,20.9c-14.6,14-13.3,28.6-11.2,37c1.7,6.8,8.8,15.6,11.2,18.2l0.3,1.1l-36.1,11.3c-8-9.7-7.4-18.1-4.7-24
				c4.2-8.9,34.6-79.7,82.4-79.7c49.4,0.9,82,70.8,86.2,79.7c2.8,5.9,3.3,14.3-4.6,24L199.9,95z"/>
			<path d="M199.9,95c-20.6,16.9-39.7,19.2-39.7,19.2s-19.3-2.3-39.9-19.3l5.5-1.7c0,0,12.1-5,33.6-4.3c21.4-0.6,34.6,4.3,34.6,4.3
				L199.9,95L199.9,95z"/>
			<path class="st1" d="M56.1,306.1c0.8,6.9,1.2,13,1.3,14.9c0.1,3.8-1.9,9.4-5,15.1c-3.1,5.6-3.5,27.4-3.5,27.4s6.7,31.9-0.6,42.8
				c-7.3,10.9-23.2,11.9-23.2,11.9H6.2v-22l0.6-5.4c-0.1-0.2-0.2-0.3-0.3-0.5c-1.9-3.1-3.3-17.6-3.1-20.2c0.2-2.6,1.7-8.3,1.7-8.3
				c-1.1-1.3-1.7-2.2-1.7-2.6c-0.1-3.5,0.4-28.5,2-34.6s6.1-18.4,6.1-18.4l0.3-0.1c-1.4-7.4-2.7-16-2.7-19.2
				c0-5.1,1.8-11.4,1.8-11.4l4.6-9c-2.6-3.5-4-6.5-4-6.5s6.1-67.4,9.2-80.4c3.1-13,14.5-42.9,14.5-42.9s19.2,32.7,21.6,39.8
				c1.6,4.6,4.3,24,6.1,40c1,9,1.8,16.8,1.9,20.4c0.4,9.9-1.5,42.3-2.8,51.7C61.1,296.6,57.3,303.9,56.1,306.1z"/>
			<path class="st1" d="M120.2,94.8l-3.9,1.2l-0.3-1.1c-2.4-2.6-9.5-11.4-11.2-18.2c-2.1-8.4-3.4-23,11.2-37
				c17.7-17,41.9-20.9,41.9-20.9s24.3,3.9,41.9,20.9c14.6,14,13.3,28.6,11.2,37c-1.7,6.8-8.8,15.6-11.2,18.2l-5.9-1.9
				c0,0-13.1-5-34.6-4.3c-21.4-0.6-33.6,4.3-33.6,4.3L120.2,94.8z"/>
		</g>
		<g>
			<path class="st2" d="M15.6,266.6l-4.6,9c0,0-1.8,6.3-1.8,11.4c0,3.2,1.3,11.9,2.7,19.2c0.9,4.3,1.8,8.2,2.5,10.3
				c2,5.6,14.2,26.3,14.2,26.3"/>
			<path class="st2" d="M11.6,306.2c0,0-4.5,12.3-6.1,18.4s-2.2,31.1-2,34.6c0,0.4,0.6,1.3,1.7,2.6c8,9.5,41.7,39.9,41.7,39.9"/>
			<path class="st2" d="M5.1,361.7c0,0-1.5,5.7-1.7,8.3c-0.2,2.6,1.2,17.2,3.1,20.2c0.1,0.1,0.2,0.3,0.3,0.5
				c2.1,3.2,6.2,8.7,6.2,8.7"/>
			<path class="st2" d="M6.9,389.9l-0.1,0.9l-0.6,5.4v22h18.9c0,0,15.9-1,23.2-11.9c7.3-10.9,0.6-42.8,0.6-42.8s0.4-21.8,3.5-27.4
				c3.1-5.6,5.1-11.2,5-15.1c-0.1-1.9-0.4-8-1.3-14.9c-0.9-7.1-2.2-14.9-4.4-19.8"/>
			<path class="st2" d="M28.3,276.8c-5.3-1.5-9.8-6.2-12.7-10.3c-2.6-3.5-4-6.5-4-6.5s6.1-67.4,9.2-80.4c3.1-13,14.5-42.9,14.5-42.9
				s1.5-8.4,7.7-13c6.1-4.6,16.9-10,16.9-10l20.3-6.4l36.1-11.3l3.9-1.2l5.5-1.7c0,0,12.1-5,33.6-4.3"/>
			<path class="st2" d="M55.7,306.8c0,0,0.1-0.2,0.4-0.7c1.2-2.2,5-9.6,6.1-17.5c1.3-9.5,3.2-41.8,2.8-51.7
				c-0.1-3.6-0.9-11.5-1.9-20.4c-1.9-16-4.6-35.4-6.1-40c-2.4-7.1-21.6-39.8-21.6-39.8"/>
			<path class="st2" d="M160.2,114.1c0,0-19.3-2.3-39.9-19.3c0,0,0,0,0,0"/>
			<path class="st2" d="M61.5,201.6l1.7,14.9l6.9,61.2v75.1c0,0-1.5,29.7-4.8,43.8c-3.3,14,0,27.1,0,27.1s45.2,4.1,64.3,3.7
				c19.2-0.5,30.5-0.8,30.5-0.8"/>
			<path class="st2" d="M80.2,107.4c-8-9.7-7.4-18.1-4.7-24c4.2-8.9,34.6-79.7,82.4-79.7"/>
			<path class="st2" d="M157.9,18.8c0,0,24.3,3.9,41.9,20.9c14.6,14,13.3,28.6,11.2,37c-1.7,6.8-8.8,15.6-11.2,18.2"/>
			<path class="st2" d="M157.9,18.8c0,0-24.3,3.9-41.9,20.9c-14.6,14-13.3,28.6-11.2,37c1.7,6.8,8.8,15.6,11.2,18.2"/>
			<path class="st2" d="M239.4,107.4c8-9.7,7.4-18.1,4.6-24c-4.2-8.9-36.8-78.7-86.2-79.7"/>
			<line class="st2" x1="307.7" y1="306.1" x2="308" y2="306.2"/>
			<path class="st2" d="M304,266.6l4.6,9c0,0,1.8,6.3,1.8,11.4c0,3.2-1.3,11.9-2.7,19.2c-0.8,4.3-1.8,8.2-2.5,10.3
				c-2,5.6-14.2,26.3-14.2,26.3"/>
			<path class="st2" d="M308,306.2c0,0,4.5,12.3,6.1,18.4s2.2,31.1,2,34.6c0,0.4-0.6,1.3-1.7,2.6c-8,9.5-41.7,39.9-41.7,39.9"/>
			<path class="st2" d="M314.5,361.7c0,0,1.5,5.7,1.7,8.3c0.2,2.5-1.1,16-2.9,19.8c-0.1,0.2-0.1,0.3-0.2,0.4
				c-1.9,3.1-6.5,9.2-6.5,9.2"/>
			<path class="st2" d="M313.4,389.9l0.8,6.3v22h-19c0,0-15.9-1-23.2-11.9c-0.8-1.2-1.4-2.6-1.9-4.3c-4-13.3,1.3-38.5,1.3-38.5
				s-0.4-21.8-3.5-27.4c-3.1-5.6-5.1-11.2-5-15.1c0.1-1.8,0.4-7.6,1.2-14.2c0.9-7.3,2.3-15.5,4.5-20.5"/>
			<path class="st2" d="M291.3,276.8c5.3-1.5,9.8-6.2,12.7-10.3c2.6-3.5,4-6.5,4-6.5s-6.1-67.4-9.2-80.4
				c-3.1-13-14.5-42.9-14.5-42.9s-1.5-8.4-7.7-13c-6.1-4.6-16.9-10-16.9-10l-20.3-6.4L199.9,95l-0.1,0l-5.9-1.9c0,0-13.1-5-34.6-4.3
				"/>
			<path class="st2" d="M263.9,306.8c0,0-5.2-8.7-6.4-18.1c-1.2-9-3-38.7-2.9-50.1c0-0.6,0-1.1,0-1.6c0.4-10,5.6-53.2,8-60.4
				c2.4-7.1,21.6-39.8,21.6-39.8"/>
			<path class="st2" d="M258.8,201.6l-4.2,36.9l-4.4,39.2v75.1c0,0,1.5,29.7,4.8,43.8c3.3,14,0,27.1,0,27.1s-45.2,4.1-64.3,3.7
				c-19.2-0.5-30.5-0.8-30.5-0.8V114.1c0,0,19.2-2.3,39.7-19.2c0.1,0,0.1-0.1,0.2-0.2"/>
		</g>
	</g>
	<g>
		<path d="M64.7,399.9c0,0,61.7,8,95.3,3.1"/>
		<path class="st0" d="M64.7,399.8c2,0.1,4,0.1,6,0.3l6,0.3c4,0.2,7.9,0.5,11.9,0.7c7.9,0.4,15.9,0.9,23.8,1.3
			c7.9,0.4,15.9,0.7,23.8,0.9c2,0.1,4,0.1,5.9,0.1c2,0,4,0,5.9,0c2,0,4,0,6-0.1c2-0.1,4-0.2,6-0.3l0,0c0.1,0,0.1,0,0.1,0.1
			c0,0.1,0,0.1-0.1,0.1c-7.9,1.1-15.9,1.5-23.8,1.6c-8,0.1-15.9-0.1-23.9-0.5c-8-0.4-15.9-1-23.8-1.7c-7.9-0.7-15.9-1.5-23.8-2.5
			c-0.1,0-0.1-0.1-0.1-0.1C64.6,399.8,64.6,399.8,64.7,399.8L64.7,399.8z"/>
	</g>
	<g>
		<path d="M255.5,399.9c0,0-61.7,8-95.3,3.1"/>
		<path class="st0" d="M255.5,400c-3.9,0.9-7.9,1.5-11.8,2.2c-3.9,0.6-7.9,1.1-11.9,1.6c-4,0.6-7.9,0.9-11.9,1.2
			c-4,0.3-8,0.6-12,0.8c-8,0.3-16,0.6-24,0.1c-2-0.1-4-0.2-6-0.4c-2-0.2-4-0.2-6-0.5c-2-0.3-4-0.5-6-0.8c-2-0.3-3.9-0.7-5.9-1.1l0,0
			c-0.1,0-0.1-0.1-0.1-0.1c0-0.1,0.1-0.1,0.1-0.1c7.9,1.1,15.9,1.4,23.8,1.5c8,0.1,15.9-0.2,23.9-0.6c8-0.4,15.9-0.9,23.8-1.6
			c7.9-0.7,15.9-1.5,23.8-2.4c0.1,0,0.1,0,0.1,0.1C255.6,399.9,255.6,399.9,255.5,400L255.5,400z"/>
	</g>
	<g id="XMLID_2_">
		<g>
		</g>
		<g>
			<polygon class="st3" points="239.9,374.2 233,302.2 220.1,302.2 228.3,374.2 			"/>
			<polygon class="st3" points="80.2,374.2 87.2,302.2 100,302.2 91.9,374.2 			"/>
		</g>
	</g>
</g>
</svg>
