<?xml version="1.0" encoding="utf-8"?>
<!-- Generator: Adobe Illustrator 24.0.2, SVG Export Plug-In . SVG Version: 6.00 Build 0)  -->
<svg version="1.1" id="Слой_1" xmlns="http://www.w3.org/2000/svg" xmlns:xlink="http://www.w3.org/1999/xlink" x="0px" y="0px"
	 viewBox="0 0 319.6 499.1" style="enable-background:new 0 0 319.6 499.1;" xml:space="preserve">
<style type="text/css">
	.st0{fill:#EF4123;}
	.st1{fill:none;stroke:#FFFFFF;stroke-width:2;stroke-linecap:round;stroke-linejoin:round;stroke-miterlimit:10;}
	.st2{fill:none;stroke:#FFFFFF;stroke-width:2;stroke-miterlimit:10;}
</style>
<g>
	<g id="XMLID_1_">
		<g>
			<path d="M313.3,388L313.3,388l0.8,6.4v22h-9.7l-24.3-4.5c-3.1-1.7-6-4.1-8.1-7.3c-0.8-1.2-1.4-2.6-1.9-4.3l2.7-0.5
				c0,0,33.7-30.4,41.7-39.9c0,0,1.5,5.7,1.7,8.3C316.4,370.7,315.1,384.2,313.3,388z"/>
			<path d="M304,264.7l4.6,9c0,0,1.8,6.3,1.8,11.4c0,3.2-1.3,11.9-2.7,19.2l0.3,0.1c0,0,4.5,12.3,6.1,18.4s2.2,31.1,2,34.6
				c0,0.4-0.6,1.3-1.7,2.6c-8,9.5-41.7,39.9-41.7,39.9l-2.7,0.5c-4-13.3,1.3-38.5,1.3-38.5s-0.4-21.8-3.5-27.4
				c-3.1-5.6-5.1-11.2-5-15.1c0.1-1.8,0.4-7.6,1.2-14.2l-0.2,0c0,0-5.2-8.7-6.4-18.1c-1.2-9-3-38.7-2.9-50.1c0-0.6,0-1.1,0-1.6
				c0.4-10,5.6-53.2,8-60.4c2.4-7.2,21.6-39.8,21.6-39.8s11.5,29.9,14.5,42.9c3.1,13,9.2,80.4,9.2,80.4S306.6,261.2,304,264.7z"/>
			<path d="M308.7,417.1l2,27.3c0,0-23.1,4-36.9-9.4l4.5-23.6l1.9,0.3c7.2,4.1,15,4.5,15,4.5h9.3L308.7,417.1z"/>
			<path d="M304.5,416.4h-9.3c0,0-7.8-0.5-15-4.5L304.5,416.4z"/>
			<path d="M276.6,121.9c6.1,4.6,7.7,13,7.7,13s-19.1,32.7-21.6,39.8c-2.4,7.1-7.7,50.4-8,60.4c0,0.5,0,1,0,1.6l-4.4,39.2v75.1
				c0,0,1.5,29.7,4.8,43.8c2.5,10.6,0.7,61.5-0.3,85.8l-95.3,3.1h-0.1l0.8-371.3c0,0,19.2-2.3,39.7-19.2l39.6,12.4l20.3,6.4
				C259.8,111.9,270.5,117.3,276.6,121.9z M240,452.4l-7-72h-12.8l8.1,72H240z"/>
			<path d="M159.4,483.6l95.3-3.1C252.9,480.7,192.5,488.5,159.4,483.6z"/>
			<path d="M254.7,480.5c-0.3,7.9-0.6,13-0.6,13s-45.2,4.2-64.3,3.7c-19.2-0.5-30.5-0.8-30.5-0.8l0-12.8h0.1
				C192.5,488.5,252.9,480.7,254.7,480.5z"/>
			<path d="M199.9,93.1L199.9,93.1c2.4-2.6,9.4-11.4,11.1-18.2c2.1-8.4,3.4-23-11.2-37c-17.7-17-41.9-20.9-41.9-20.9
				s-24.3,3.9-41.9,20.9c-14.6,14-13.3,28.6-11.2,37c1.7,6.8,8.8,15.6,11.2,18.2l0.3,1.1l-36.1,11.3c-8-9.7-7.4-18.1-4.7-24
				c4.2-8.9,34.6-79.7,82.4-79.7c49.4,1,82,70.8,86.2,79.7c2.8,5.9,3.3,14.3-4.6,24L199.9,93.1z"/>
			<polygon points="233,380.4 240,452.4 228.3,452.4 220.2,380.4 			"/>
			<path class="st0" d="M120.2,93l-3.9,1.2l-0.3-1.1c-2.4-2.6-9.5-11.4-11.2-18.2c-2.1-8.4-3.4-23,11.2-37
				c17.7-17,41.9-20.9,41.9-20.9s24.3,3.9,41.9,20.9c14.6,14,13.3,28.6,11.2,37c-1.7,6.8-8.8,15.6-11.2,18.2l-5.9-1.9
				c0,0-13.1-4.9-34.6-4.3c-21.4-0.6-33.6,4.3-33.6,4.3L120.2,93z"/>
			<path d="M199.8,93.1L199.8,93.1c-20.5,16.9-39.7,19.2-39.7,19.2S140.8,110,120.2,93l5.5-1.7c0,0,12.1-4.9,33.6-4.3
				c21.4-0.6,34.6,4.3,34.6,4.3L199.8,93.1z"/>
			<path d="M63.2,214.7l-0.2,0c-1.9-16-4.6-35.4-6.1-40c-2.4-7.2-21.6-39.8-21.6-39.8s1.5-8.4,7.7-13c6.1-4.6,16.9-10,16.9-10
				l20.3-6.4l36.1-11.3l3.9-1.2c20.6,17,39.9,19.3,39.9,19.3l-0.8,371.3h-0.1l-95-3.1c-0.5-24.3-1.3-75.2,1.2-85.8
				c3.3-14.1,4.8-43.8,4.8-43.8v-75.1L63.2,214.7z M92,452.4l8.1-72H87.3l-7,72H92z"/>
			<path d="M159.3,483.6l0,12.8c0,0-11.3,0.3-30.5,0.8c-19.2,0.5-64.3-3.7-64.3-3.7s-0.2-5.1-0.3-12.9c4.6,0.6,62.8,7.8,95,3.1
				H159.3z"/>
			<path d="M64.2,480.5l95,3.1C126.9,488.3,68.8,481.1,64.2,480.5C64.2,480.5,64.2,480.5,64.2,480.5z"/>
			<polygon points="100.1,380.4 92,452.4 80.3,452.4 87.3,380.4 			"/>
			<path d="M15.6,264.7c-2.6-3.5-4-6.5-4-6.5s6.1-67.4,9.2-80.4c3.1-13,14.5-42.9,14.5-42.9s19.2,32.7,21.6,39.8
				c1.6,4.6,4.3,24,6.1,40c1,9,1.8,16.9,1.9,20.4c0.4,9.9-1.5,42.2-2.8,51.7c-1.1,7.9-4.8,15.3-6.1,17.5c0.8,6.9,1.2,13.1,1.3,14.9
				c0.1,3.8-1.9,9.5-5,15.1c-3.1,5.6-3.5,27.4-3.5,27.4s6.7,31.9-0.6,42.8c-2.1,3.2-5,5.6-8.1,7.3l-24.5,4.6H6.2v-22l0.6-5.4
				c-0.1-0.2-0.2-0.3-0.3-0.5c-1.9-3.1-3.3-17.6-3.1-20.2s1.7-8.3,1.7-8.3c-1.1-1.3-1.7-2.2-1.7-2.6c-0.1-3.5,0.4-28.5,2-34.6
				s6.1-18.4,6.1-18.4l0.3-0.1c-1.4-7.4-2.7-16-2.7-19.2c0-5.1,1.8-11.4,1.8-11.4L15.6,264.7z"/>
			<path d="M64.2,480.5C64.2,480.5,64.2,480.5,64.2,480.5c-0.2,0-0.3,0-0.3,0L64.2,480.5z"/>
			<path d="M41.8,411.5l4.5,23.6c-13.8,13.4-36.8,9.4-36.8,9.4l1.9-27.3l4.2-0.8h9.4c0,0,7.9-0.5,15.1-4.6L41.8,411.5z"/>
			<path d="M15.7,416.4l24.5-4.6c-7.2,4.1-15.1,4.6-15.1,4.6H15.7z"/>
		</g>
		<g>
			<path class="st1" d="M11.5,417.1l-1.9,27.3c0,0,23.1,4,36.8-9.4l-4.5-23.6"/>
			<path class="st1" d="M308.7,417.1l2,27.3c0,0-23.1,4-36.9-9.4l4.5-23.6"/>
			<path class="st1" d="M15.6,264.7l-4.6,9c0,0-1.8,6.3-1.8,11.4c0,3.2,1.3,11.9,2.7,19.2c0.9,4.3,1.8,8.2,2.5,10.3
				c2,5.6,14.2,26.3,14.2,26.3"/>
			<path class="st1" d="M11.6,304.3c0,0-4.5,12.3-6.1,18.4s-2.2,31.1-2,34.6c0,0.4,0.6,1.3,1.7,2.6c8,9.5,41.7,39.9,41.7,39.9"/>
			<path class="st1" d="M5.1,359.9c0,0-1.5,5.7-1.7,8.3s1.2,17.2,3.1,20.2c0.1,0.2,0.2,0.3,0.3,0.5c2.1,3.2,6.2,8.7,6.2,8.7"/>
			<path class="st1" d="M6.9,388l-0.1,0.9l-0.6,5.4v22h9.5h9.4c0,0,7.9-0.5,15.1-4.6c3-1.7,5.9-4.1,8.1-7.3
				c7.3-10.9,0.6-42.8,0.6-42.8s0.4-21.8,3.5-27.4c3.1-5.6,5.1-11.2,5-15.1c-0.1-1.9-0.4-8-1.3-14.9c-0.9-7.1-2.2-14.9-4.4-19.8"/>
			<path class="st1" d="M28.3,274.9c-5.3-1.5-9.8-6.2-12.7-10.3c-2.6-3.5-4-6.5-4-6.5s6.1-67.4,9.2-80.4c3.1-13,14.5-42.9,14.5-42.9
				s1.5-8.4,7.7-13c6.1-4.6,16.9-10,16.9-10l20.3-6.4l36.1-11.3l3.9-1.2l5.5-1.7c0,0,12.1-4.9,33.6-4.3"/>
			<path class="st1" d="M55.7,304.9c0,0,0.1-0.2,0.4-0.7c1.2-2.2,5-9.6,6.1-17.5c1.3-9.5,3.2-41.8,2.8-51.7
				c-0.1-3.6-0.9-11.5-1.9-20.4c-1.9-16-4.6-35.4-6.1-40c-2.4-7.2-21.6-39.8-21.6-39.8"/>
			<path class="st1" d="M160.2,112.3c0,0-19.3-2.3-39.9-19.3c0,0,0,0,0,0"/>
			<path class="st1" d="M64.2,480.5c0.2,7.9,0.3,12.9,0.3,12.9s45.2,4.2,64.3,3.7c19.2-0.5,30.5-0.8,30.5-0.8"/>
			<path class="st1" d="M61.5,199.8l1.7,14.9l6.9,61.2v75.1c0,0-1.5,29.7-4.8,43.8c-2.5,10.6-1.7,61.5-1.2,85.8"/>
			<path class="st1" d="M80.2,105.5c-8-9.7-7.4-18.1-4.7-24c4.2-8.9,34.6-79.7,82.4-79.7"/>
			<path class="st1" d="M157.9,16.9c0,0,24.3,3.9,41.9,20.9c14.6,14,13.3,28.6,11.2,37c-1.7,6.8-8.8,15.6-11.2,18.2"/>
			<path class="st1" d="M157.9,16.9c0,0-24.3,3.9-41.9,20.9c-14.6,14-13.3,28.6-11.2,37c1.7,6.8,8.8,15.6,11.2,18.2"/>
			<path class="st1" d="M239.4,105.5c8-9.7,7.4-18.1,4.6-24c-4.2-8.9-36.8-78.7-86.2-79.7"/>
			<line class="st1" x1="307.7" y1="304.2" x2="308" y2="304.3"/>
			<path class="st1" d="M304,264.7l4.6,9c0,0,1.8,6.3,1.8,11.4c0,3.2-1.3,11.9-2.7,19.2c-0.8,4.3-1.8,8.2-2.5,10.3
				c-2,5.6-14.2,26.3-14.2,26.3"/>
			<path class="st1" d="M308,304.3c0,0,4.5,12.3,6.1,18.4s2.2,31.1,2,34.6c0,0.4-0.6,1.3-1.7,2.6c-8,9.5-41.7,39.9-41.7,39.9"/>
			<path class="st1" d="M314.5,359.9c0,0,1.5,5.7,1.7,8.3c0.2,2.5-1.1,16-2.9,19.8c-0.1,0.2-0.1,0.3-0.2,0.4
				c-1.9,3.1-6.5,9.2-6.5,9.2"/>
			<path class="st1" d="M313.4,388l0.8,6.3v22h-9.7h-9.3c0,0-7.8-0.5-15-4.5c-3.1-1.7-6-4.1-8.1-7.3c-0.8-1.2-1.4-2.6-1.9-4.3
				c-4-13.3,1.3-38.5,1.3-38.5s-0.4-21.8-3.5-27.4c-3.1-5.6-5.1-11.2-5-15.1c0.1-1.8,0.4-7.6,1.2-14.2c0.9-7.3,2.3-15.5,4.5-20.5"/>
			<path class="st1" d="M291.3,274.9c5.3-1.5,9.8-6.2,12.7-10.3c2.6-3.5,4-6.5,4-6.5s-6.1-67.4-9.2-80.4
				c-3.1-13-14.5-42.9-14.5-42.9s-1.5-8.4-7.7-13c-6.1-4.6-16.9-10-16.9-10l-20.3-6.4l-39.6-12.4l-0.1,0l-5.9-1.9
				c0,0-13.1-4.9-34.6-4.3"/>
			<path class="st1" d="M263.9,304.9c0,0-5.2-8.7-6.4-18.1c-1.2-9-3-38.7-2.9-50.1c0-0.6,0-1.1,0-1.6c0.4-10,5.6-53.2,8-60.4
				c2.4-7.2,21.6-39.8,21.6-39.8"/>
			<path class="st1" d="M258.8,199.8l-4.2,36.9l-4.4,39.2v75.1c0,0,1.5,29.7,4.8,43.8c2.5,10.6,0.7,61.5-0.3,85.8
				c-0.3,7.9-0.6,13-0.6,13s-45.2,4.2-64.3,3.7c-19.2-0.5-30.5-0.8-30.5-0.8l0-12.8l0.8-371.3c0,0,19.2-2.3,39.7-19.2
				c0.1-0.1,0.1-0.1,0.2-0.2"/>
			<path class="st1" d="M63.9,480.5c0,0,0.1,0,0.3,0c4.6,0.6,62.8,7.8,95,3.1"/>
			<path class="st1" d="M254.7,480.5c-1.8,0.2-62.2,8-95.3,3.1"/>
			<line class="st1" x1="254.7" y1="480.5" x2="254.7" y2="480.5"/>
			<polygon class="st2" points="240,452.4 233,380.4 220.2,380.4 228.3,452.4 			"/>
			<polygon class="st2" points="80.3,452.4 87.3,380.4 100.1,380.4 92,452.4 			"/>
		</g>
	</g>
</g>
</svg>
