<?xml version="1.0" encoding="utf-8"?>
<!-- Generator: Adobe Illustrator 24.0.2, SVG Export Plug-In . SVG Version: 6.00 Build 0)  -->
<svg version="1.1" id="Слой_1" xmlns="http://www.w3.org/2000/svg" xmlns:xlink="http://www.w3.org/1999/xlink" x="0px" y="0px"
	 viewBox="0 0 20 20" style="enable-background:new 0 0 20 20;" xml:space="preserve">
<style type="text/css">
	.st0{fill:none;stroke:#FFFFFF;stroke-width:2;stroke-miterlimit:10;}
</style>
<path class="st0" d="M0.2,1h2.6l3.4,11.5c0,0,0.5,2.1,2.7,1.2s9.2-1.2,9.2-1.2s0.8,0.1,0.8-1s0.2-4.3,0.2-4.3s0-0.4-0.2-0.8
	C18.8,6.1,18.4,6,18.2,6c-0.7-0.1-7.5,0-13.9,0"/>
<ellipse class="st0" cx="7.8" cy="17" rx="2.1" ry="2"/>
<ellipse class="st0" cx="16.9" cy="17" rx="2.1" ry="2"/>
<line class="st0" x1="12.2" y1="6.9" x2="12.2" y2="11.7"/>
<path class="st0" d="M15.6,9.2"/>
<path class="st0" d="M8.8,9.2"/>
<line class="st0" x1="9.7" y1="9.2" x2="14.7" y2="9.2"/>
</svg>
