<?xml version="1.0" encoding="utf-8"?>
<!-- Generator: Adobe Illustrator 24.0.2, SVG Export Plug-In . SVG Version: 6.00 Build 0)  -->
<svg version="1.1" id="Слой_1" xmlns="http://www.w3.org/2000/svg" xmlns:xlink="http://www.w3.org/1999/xlink" x="0px" y="0px"
	 viewBox="0 0 20 20" style="enable-background:new 0 0 20 20;" xml:space="preserve">
<style type="text/css">
	.st0{fill:#FFFFFF;stroke:#000000;stroke-miterlimit:10;}
</style>
<path class="st0" d="M0,0.5h2.69L6.2,12.58c0,0,0.48,2.22,2.82,1.28c2.34-0.93,9.36-1.32,9.36-1.32s0.8,0.06,0.83-1.15
	s0.17-4.5,0.17-4.5s0.05-0.43-0.2-0.83c-0.21-0.33-0.58-0.43-0.79-0.45c-0.71-0.06-7.71,0-14.21,0.01"/>
<ellipse class="st0" cx="7.75" cy="17.43" rx="2.1" ry="2.07"/>
<ellipse class="st0" cx="17.12" cy="17.43" rx="2.1" ry="2.07"/>
<line class="st0" x1="12.26" y1="6.71" x2="12.26" y2="11.76"/>
<path class="st0" d="M15.67,9.24"/>
<path class="st0" d="M8.82,9.24"/>
<line class="st0" x1="9.73" y1="9.24" x2="14.78" y2="9.24"/>
</svg>
