<?xml version="1.0" encoding="utf-8"?>
<!-- Generator: Adobe Illustrator 24.0.2, SVG Export Plug-In . SVG Version: 6.00 Build 0)  -->
<svg version="1.1" id="Слой_1" xmlns="http://www.w3.org/2000/svg" xmlns:xlink="http://www.w3.org/1999/xlink" x="0px" y="0px"
	 viewBox="0 0 20 20" style="enable-background:new 0 0 20 20;" xml:space="preserve">
<style type="text/css">
	.st0{fill:none;stroke:#008000;stroke-miterlimit:10;}
</style>
<path class="st0" d="M0,0.5h2.7l3.5,12.1c0,0,0.5,2.2,2.8,1.3s9.4-1.3,9.4-1.3s0.8,0.1,0.8-1.1S19.4,7,19.4,7s0-0.4-0.2-0.8
	c-0.2-0.3-0.6-0.4-0.8-0.4c-0.7-0.1-7.7,0-14.2,0"/>
<ellipse class="st0" cx="7.8" cy="17.4" rx="2.1" ry="2.1"/>
<ellipse class="st0" cx="17.1" cy="17.4" rx="2.1" ry="2.1"/>
<line class="st0" x1="12.3" y1="6.7" x2="12.3" y2="11.8"/>
<path class="st0" d="M15.7,9.2"/>
<path class="st0" d="M8.8,9.2"/>
<line class="st0" x1="9.7" y1="9.2" x2="14.8" y2="9.2"/>
</svg>
