<?xml version="1.0" encoding="utf-8"?>
<!-- Generator: Adobe Illustrator 24.0.2, SVG Export Plug-In . SVG Version: 6.00 Build 0)  -->
<svg version="1.1" id="Слой_1" xmlns="http://www.w3.org/2000/svg" xmlns:xlink="http://www.w3.org/1999/xlink" x="0px" y="0px"
	 viewBox="0 0 20 20" style="enable-background:new 0 0 20 20;" xml:space="preserve">
<style type="text/css">
	.st0{fill:#FFFFFF;stroke:#1D1D1B;stroke-miterlimit:10;}
</style>
<circle class="st0" cx="8.29" cy="5.09" r="4.59"/>
<circle class="st0" cx="8.29" cy="5.09" r="3.2"/>
<path class="st0" d="M13.03,19.46c0,0-2.81,0.15-3.47-0.12c-0.66-0.28-1.63-0.63-2.26-1.18c-0.63-0.55-4.88-5.02-4.88-5.02
	s-0.3-0.47,0.39-1.16s1.35-0.25,1.35-0.25l2.89,2.95V4.79c0,0,0.2-0.91,1.08-0.96s1.27,0.83,1.27,0.83l-0.03,6.81
	c0,0-0.14-2.48,1.21-2.54s0.96,0.36,2.34,0.36s0.96,0.85,2.31,0.8s1.18,1.56,1.18,1.56l-0.11,5.19c0,0,0.14,0.46-0.74,1.54
	S13.03,19.46,13.03,19.46z"/>
<path class="st0" d="M12.17,9.21"/>
<line class="st0" x1="12.17" y1="9.21" x2="12.17" y2="11.66"/>
<line class="st0" x1="14.57" y1="10" x2="14.57" y2="12.06"/>
</svg>
